<svg width="183" height="272" viewBox="0 0 183 272" fill="none" xmlns="http://www.w3.org/2000/svg">
<path d="M169.167 231.003C163.072 237.763 155.699 242.603 146.743 246.293C147.044 244.554 148.121 243.847 148.829 242.972C154.924 235.44 158.743 227.214 158.547 217.603C158.354 208.147 154.243 200.174 147.803 193.142C138.599 183.091 127.189 175.732 114.239 170.267C98.6658 163.696 83.2427 156.82 67.6142 150.365C60.0481 147.239 52.3291 144.436 45.2143 140.471C29.4953 131.709 16.2922 120.584 7.64821 105.433C0.74357 93.3316 -2.31509 80.6112 1.97839 67.0617C5.31571 56.5298 12.4295 48.3616 21.3 41.3469C22.4322 40.4515 23.4558 39.325 25.4081 38.87C24.5723 42.9748 23.6884 46.7854 23.5577 50.7224C22.9974 67.5896 31.0727 80.6671 44.5512 91.2509C56.3913 100.548 70.3336 106.351 84.9951 110.74C108.717 117.843 131.243 127.113 151.169 141.204C162.471 149.196 172.105 158.457 177.411 170.909C186.492 192.226 184.276 212.29 169.167 231.003Z" fill="#E03568"/>
<path d="M122.625 8.51584C123.399 9.05673 124.348 9.18888 124.463 10.3262C100.684 13.4582 83.2608 24.597 75.6588 46.0102C68.0843 67.3459 74.9637 85.7539 91.99 101.167C91.7143 101.891 91.2129 101.716 90.8022 101.614C74.7484 97.607 60.3268 90.9831 49.018 79.4038C40.5228 70.7055 35.621 60.5184 35.6055 48.8047C35.5864 34.3635 41.4468 22.1411 53.6825 12.801C64.6778 4.40764 77.2896 -0.207506 91.6241 0.00716792C102.664 0.17249 112.98 3.12154 122.625 8.51584Z" fill="#E03568"/>
<path d="M108.656 192.274C107.148 188.078 105.117 184.327 102.711 180.749C100.322 177.195 97.3981 174.009 94.2573 171C95.0863 170.263 95.6797 170.739 96.2025 170.929C111.424 176.46 124.607 184.525 134.327 196.923C152.894 220.607 144.233 252.965 115.795 265.849C93.0698 276.145 71.8652 273.122 51.9584 259.426C51.4791 259.096 50.804 258.843 50.9714 257.743C75.1519 258.458 94.1884 249.96 105.816 229.851C112.692 217.96 113.149 205.283 108.656 192.274Z" fill="#E03568"/>
<path d="M88.9183 47.8108C94.8588 33.076 106.264 24.1807 122.765 22.3183C144.143 19.9054 164.529 29.6017 173.567 49.7693C174.675 52.2417 175.458 54.8414 176.304 57.4066C176.469 57.908 176.791 58.5226 176.175 59.314C160.379 45.514 142.128 41.3167 122.406 50.3984C102.605 59.5169 95.4835 75.561 98.0157 95.6312C90.4298 86.9088 82.4658 65.0207 88.9183 47.8108Z" fill="#E03568"/>
<path d="M93.0603 190.72C95.058 200.282 95.1123 209.558 92.0757 218.77C87.348 233.113 72.1968 244.173 55.9986 245.238C31.9631 246.818 8.89793 231.65 4.70469 206.963C4.49821 205.747 3.86918 204.542 4.65443 202.784C13.2358 213.138 24.0659 219.774 38.0744 221.312C52.4556 222.89 64.7751 218.791 74.5966 209.087C84.2443 199.554 87.8279 187.952 86.8916 174.965C90.1072 179.78 91.5334 185.155 93.0603 190.72Z" fill="#E03568"/>
</svg>
